<svg xmlns="http://www.w3.org/2000/svg" viewBox="0 0 64 64" role="img" aria-label="state-bleeding.svg">
  <rect x="4" y="4" width="56" height="56" rx="12" fill="#b22222" stroke="#111" stroke-width="3"/>
  <circle cx="32" cy="32" r="18" fill="#f6e7c1" opacity=".92"/>
  <path fill="#111" d="M32 14c8 11 13 18 13 26 0 8-6 13-13 13s-13-5-13-13c0-8 5-15 13-26z"/>
  <path fill="#f6e7c1" opacity=".9" d="M27 29c-2 4-4 7-4 11 0 4 3 8 8 9-3-3-4-6-3-10 0-3 2-6 4-10l-5 0z"/>
  <path fill="#111" d="M46 27c4 5 6 9 6 13 0 4-3 7-7 7s-7-3-7-7c0-4 3-8 8-13z"/>
</svg>
