<svg xmlns="http://www.w3.org/2000/svg" viewBox="0 0 64 64" role="img" aria-label="state-entangled.svg">
  <rect x="4" y="4" width="56" height="56" rx="12" fill="#8b4513" stroke="#111" stroke-width="3"/>
  <circle cx="32" cy="32" r="18" fill="#f6e7c1" opacity=".92"/>
  <path fill="#111" d="M18 23c0-5 4-9 9-9 4 0 7 2 9 6l-6 3c-1-2-2-3-4-3s-3 1-3 3 1 4 4 4h10c3 0 4-2 4-4s-1-3-3-3-3 1-4 3l-6-3c2-4 5-6 10-6s8 4 8 9c0 3-1 6-4 8 3 2 5 5 5 9 0 6-4 10-10 10-5 0-8-3-10-7l6-3c1 2 2 4 5 4 2 0 4-2 4-4 0-3-2-5-5-5H27c-3 0-5 2-5 5 0 2 2 4 4 4 3 0 4-2 5-4l6 3c-2 4-5 7-10 7-6 0-10-4-10-10 0-4 2-7 5-9-3-2-4-5-4-8z"/>
  <path fill="#f6e7c1" d="M24 30h17v5H24z"/>
</svg>
