<svg xmlns="http://www.w3.org/2000/svg" viewBox="0 0 64 64" role="img" aria-label="state-poisoned.svg">
  <rect x="4" y="4" width="56" height="56" rx="12" fill="#2e8b57" stroke="#111" stroke-width="3"/>
  <circle cx="32" cy="32" r="18" fill="#f6e7c1" opacity=".92"/>
  <path fill="#111" d="M32 14c9 0 16 6 16 14 0 5-2 9-6 12v9H22v-9c-4-3-6-7-6-12 0-8 7-14 16-14z"/>
  <circle cx="26" cy="29" r="4" fill="#f6e7c1"/>
  <circle cx="38" cy="29" r="4" fill="#f6e7c1"/>
  <path fill="#f6e7c1" d="M32 33l4 8h-8z"/>
  <path fill="#111" d="M23 45h18v4H23zM21 53l22-10 2 4-22 10zM43 53L21 43l-2 4 22 10z"/>
</svg>
