<svg xmlns="http://www.w3.org/2000/svg" viewBox="0 0 64 64" role="img" aria-label="state-burning.svg">
  <rect x="4" y="4" width="56" height="56" rx="12" fill="#d2691e" stroke="#111" stroke-width="3"/>
  <circle cx="32" cy="32" r="18" fill="#f6e7c1" opacity=".92"/>
  <path fill="#111" d="M32 11c6 8 4 13 2 18 4-3 6-7 8-12 7 8 10 14 10 22 0 9-8 15-20 15s-20-6-20-15c0-8 5-13 12-20-1 7 2 10 6 12-2-8 0-14 2-20z"/>
  <path fill="#f6e7c1" opacity=".9" d="M32 28c4 5 8 9 8 15 0 5-3 8-8 8s-9-3-9-8c0-5 3-8 7-13 0 4 1 6 4 8-1-4-1-7-2-10z"/>
</svg>
