<svg xmlns="http://www.w3.org/2000/svg" viewBox="0 0 64 64" role="img" aria-label="state-deafened.svg">
  <rect x="4" y="4" width="56" height="56" rx="12" fill="#4682b4" stroke="#111" stroke-width="3"/>
  <circle cx="32" cy="32" r="18" fill="#f6e7c1" opacity=".92"/>
  <path fill="#111" d="M32 15c9 0 15 6 15 14 0 6-3 10-8 13-3 2-4 4-4 8v3h-7v-4c0-6 3-9 7-12 3-2 5-4 5-8 0-4-3-7-8-7s-8 3-8 8h-7c0-9 6-15 15-15z"/>
  <path fill="#f6e7c1" d="M31 25c4 0 6 2 6 5 0 2-1 4-4 6-2 1-4 3-5 6l-5-2c1-4 4-6 7-8 1-1 2-2 2-3s-1-2-3-2c-3 0-5 2-5 5h-4c0-5 4-7 11-7z"/>
  <path fill="#111" d="M48 16l4 4-34 34-4-4z"/>
</svg>
